<svg xmlns="http://www.w3.org/2000/svg" width="130" height="60" viewBox="0 0 130 60">
  <defs>
    <style>
      .cls-1, .cls-2 {
        fill-rule: evenodd;
      }

      .cls-2 {
        fill: #b6b6b6;
      }
    </style>
  </defs>
  <path id="PRET_COUTURE_BRIDALS" data-name="PRET | COUTURE | BRIDALS" class="cls-1" d="M253,639.6h0.833v-2.593a2.868,2.868,0,0,0,.671.058,2.689,2.689,0,0,0,1.974-.711,1.907,1.907,0,0,0,.5-1.383,1.776,1.776,0,0,0-.565-1.355,2.652,2.652,0,0,0-1.811-.537,9.67,9.67,0,0,0-1.6.124v6.4Zm0.833-5.792a3.525,3.525,0,0,1,.786-0.067,1.289,1.289,0,0,1,1.524,1.278,1.384,1.384,0,0,1-1.62,1.373,2.8,2.8,0,0,1-.69-0.067v-2.517Zm5.223,5.792h0.834v-2.8h0.786a1.263,1.263,0,0,1,1.3,1.258,8.127,8.127,0,0,0,.421,1.546h0.863a10.244,10.244,0,0,1-.5-1.777,1.625,1.625,0,0,0-.94-1.306v-0.029a1.7,1.7,0,0,0,1.208-1.642,1.656,1.656,0,0,0-.508-1.239,2.665,2.665,0,0,0-1.869-.528,9.669,9.669,0,0,0-1.6.134V639.6Zm0.834-5.8a3.615,3.615,0,0,1,.824-0.067,1.233,1.233,0,0,1,1.485,1.2,1.271,1.271,0,0,1-1.456,1.23h-0.853V633.8Zm8.615,2.075H266v-2.046h2.654v-0.7h-3.5V639.6H268.8v-0.7H266v-2.334h2.5v-0.691Zm3.718,3.726h0.843v-5.763h1.974v-0.71h-4.782v0.71h1.965V639.6Zm8.462-7.2V642h0.642v-9.6h-0.642Zm11.366,6.329a3.353,3.353,0,0,1-1.371.269,2.343,2.343,0,0,1-2.472-2.6,2.4,2.4,0,0,1,2.52-2.67,2.949,2.949,0,0,1,1.294.269l0.211-.682a3.5,3.5,0,0,0-1.533-.288,3.213,3.213,0,0,0-3.373,3.4,3.017,3.017,0,0,0,3.181,3.285,4.108,4.108,0,0,0,1.706-.307Zm4.58-5.715c-1.725,0-2.989,1.345-2.989,3.4,0,1.96,1.188,3.295,2.9,3.295,1.648,0,3-1.191,3-3.41C299.543,634.364,298.4,633.009,296.63,633.009Zm-0.028.682c1.389,0,2.06,1.345,2.06,2.642,0,1.469-.748,2.689-2.07,2.689s-2.07-1.239-2.07-2.632C294.522,634.978,295.212,633.691,296.6,633.691Zm4.973-.566v3.813c0,2.017,1,2.766,2.319,2.766,1.4,0,2.444-.807,2.444-2.795v-3.784h-0.844v3.841c0,1.422-.622,2.056-1.571,2.056-0.863,0-1.5-.615-1.5-2.056v-3.841h-0.843Zm8.4,6.473h0.843v-5.763h1.974v-0.71h-4.782v0.71h1.965V639.6Zm4.484-6.473v3.813c0,2.017,1,2.766,2.319,2.766,1.4,0,2.444-.807,2.444-2.795v-3.784h-0.843v3.841c0,1.422-.623,2.056-1.572,2.056-0.862,0-1.5-.615-1.5-2.056v-3.841h-0.844Zm7.168,6.473h0.834v-2.8h0.786a1.263,1.263,0,0,1,1.3,1.258,8.021,8.021,0,0,0,.422,1.546h0.862a10.34,10.34,0,0,1-.5-1.777,1.626,1.626,0,0,0-.939-1.306v-0.029a1.7,1.7,0,0,0,1.207-1.642,1.656,1.656,0,0,0-.508-1.239,2.664,2.664,0,0,0-1.868-.528,9.672,9.672,0,0,0-1.6.134V639.6Zm0.834-5.8a3.621,3.621,0,0,1,.824-0.067,1.233,1.233,0,0,1,1.485,1.2,1.271,1.271,0,0,1-1.456,1.23h-0.853V633.8Zm8.615,2.075h-2.5v-2.046h2.654v-0.7h-3.5V639.6h3.641v-0.7h-2.8v-2.334h2.5v-0.691Zm6.306-3.477V642h0.642v-9.6h-0.642Zm7.025,7.184a9.792,9.792,0,0,0,1.293.077,3.2,3.2,0,0,0,2.224-.6,1.706,1.706,0,0,0,.555-1.3,1.649,1.649,0,0,0-1.332-1.614v-0.028a1.532,1.532,0,0,0,1.093-1.422,1.367,1.367,0,0,0-.546-1.143,2.624,2.624,0,0,0-1.764-.47,7.282,7.282,0,0,0-1.523.144v6.358Zm0.834-5.8a3.537,3.537,0,0,1,.737-0.058c0.844,0,1.409.307,1.409,1.057a1.2,1.2,0,0,1-1.389,1.095h-0.757v-2.094Zm0,2.718h0.689c0.911,0,1.668.374,1.668,1.248,0,0.942-.8,1.259-1.658,1.259a4.476,4.476,0,0,1-.7-0.039V636.5Zm5.318,3.1h0.834v-2.8h0.785a1.264,1.264,0,0,1,1.3,1.258,8.127,8.127,0,0,0,.421,1.546h0.863a10.309,10.309,0,0,1-.5-1.777,1.622,1.622,0,0,0-.939-1.306v-0.029a1.7,1.7,0,0,0,1.208-1.642,1.656,1.656,0,0,0-.508-1.239,2.667,2.667,0,0,0-1.869-.528,9.669,9.669,0,0,0-1.6.134V639.6Zm0.834-5.8a3.608,3.608,0,0,1,.824-0.067,1.233,1.233,0,0,1,1.485,1.2,1.271,1.271,0,0,1-1.456,1.23h-0.853V633.8Zm5.27-.672V639.6H357.5v-6.473h-0.844Zm3.258,6.454a13.315,13.315,0,0,0,1.514.077,4.017,4.017,0,0,0,2.866-.932,3.467,3.467,0,0,0,.929-2.516,2.958,2.958,0,0,0-.92-2.325,3.741,3.741,0,0,0-2.616-.806,10.622,10.622,0,0,0-1.773.144v6.358Zm0.834-5.753a4.718,4.718,0,0,1,.978-0.087,2.306,2.306,0,0,1,2.615,2.5,2.481,2.481,0,0,1-2.75,2.747,6.871,6.871,0,0,1-.843-0.039v-5.119Zm9.707,3.736,0.69,2.036h0.891l-2.2-6.473h-1l-2.2,6.473H367.5l0.671-2.036h2.29Zm-2.117-.653,0.632-1.873c0.134-.394.23-0.8,0.326-1.172h0.019c0.1,0.375.192,0.759,0.335,1.182l0.642,1.863H368.34Zm5.6,2.689h3.6v-0.7h-2.76v-5.772h-0.843V639.6Zm5.165-.317a3.325,3.325,0,0,0,1.648.423c1.524,0,2.252-.874,2.252-1.873,0-.951-0.546-1.479-1.638-1.9-0.892-.346-1.284-0.643-1.284-1.248a1.046,1.046,0,0,1,1.217-.971,2.387,2.387,0,0,1,1.217.308l0.229-.682a2.884,2.884,0,0,0-1.418-.317,1.861,1.861,0,0,0-2.089,1.758c0,0.9.652,1.46,1.706,1.844,0.872,0.326,1.217.682,1.217,1.277A1.16,1.16,0,0,1,380.807,639a2.82,2.82,0,0,1-1.485-.423Z" transform="translate(-253 -582)"/>
  <path id="Shape_1_copy" data-name="Shape 1 copy" class="cls-1" d="M262.428,599.751s0.19-3.485-2.531-3.485c-2.468,0-2.53,3.485-2.53,3.485v4.969l9.427,14.78,0.126,0.258V625.5c-0.19,1.613-.95,4.068-6.96,4.068-5.884,0-6.706-2.39-6.96-4.068v-6.131h4.428l0.064,5.356s-0.127,3.485,2.53,3.485c2.468,0,2.531-3.485,2.531-3.485v-5.033S255.4,608.593,253,604.72v-5.743c0.253-1.614.949-4.067,6.955-4.067,5.883,0,6.769,2.388,6.954,4.067v7.032h-4.418Zm21.13,22.847v6.712h-3.606v-1.743a3.693,3.693,0,0,1-1.077,1.743,13.286,13.286,0,0,1-2.468.258c-6.074,0-6.833-3.033-6.833-5.614V611.82s0.316-5.291,5.189-5.48a6.34,6.34,0,0,1,3.227.386,2.637,2.637,0,0,1,1.139,1.484v-8.717c0-.711-0.316-2.131-2.594-2.131-2.214,0-2.468,1.484-2.468,2.131v2.194l-4.428-.064a5.365,5.365,0,0,1,0-1.161c0-.259.506-5.357,6.833-5.357,6.648,0,6.833,3.485,7.149,5.357C283.558,608.012,283.558,616.333,283.558,622.6Zm-4.618,3.033V610.142s-0.064-1.807-2.594-1.807c-2.468,0-2.468,1.872-2.468,1.872v15.424s0.19,1.679,2.468,1.743c2.784,0,2.595-1.743,2.595-1.743h0Zm-4.872-23.75h0ZM300.2,629.31h-4.3V598.977s0-1.872-2.468-1.872c-2.53,0-2.594,1.806-2.594,1.806v30.4h-4.619V595.3h4.492v1.679a2.527,2.527,0,0,1,1.076-1.484,6.329,6.329,0,0,1,3.227-.387c4.871,0.193,5.188,3.614,5.188,5.481V629.31Zm33.342-5.357c0,2.585-.759,5.614-6.9,5.614a14.627,14.627,0,0,1-2.53-.258,4.193,4.193,0,0,1-1.012-1.743v1.743h-3.67V582h4.492v14.782a2.389,2.389,0,0,1,1.139-1.484,6.34,6.34,0,0,1,3.227-.388c4.872,0.194,5.188,5.551,5.188,5.551,0,6.2.063,19.943,0.063,23.493h0Zm-4.365-25.171s0-1.872-2.468-1.872c-2.594,0-2.594,1.872-2.594,1.872l-0.063,7.746v0.129l0.063,18.974s-0.19,1.743,2.594,1.743c2.277-.064,2.468-1.743,2.468-1.743V598.783h0Zm21,25.171c0,2.585-.759,5.614-6.9,5.614a14.617,14.617,0,0,1-2.53-.258,4.193,4.193,0,0,1-1.012-1.743v1.743h-3.67V582h4.492v14.782A2.389,2.389,0,0,1,341.7,595.3a6.34,6.34,0,0,1,3.227-.388c4.871,0.194,5.188,5.551,5.188,5.551,0,6.2.063,19.943,0.063,23.493h0Zm-4.365-25.17s0-1.872-2.467-1.872c-2.594,0-2.594,1.872-2.594,1.872l-0.063,7.745v0.129l0.061,18.974s-0.19,1.743,2.594,1.743c2.277-.064,2.467-1.743,2.467-1.743V598.783h0Zm20.94,23.815v6.712h-3.605v-1.743a3.691,3.691,0,0,1-1.076,1.743,13.266,13.266,0,0,1-2.467.258c-6.074,0-6.833-3.033-6.833-5.614V611.82s0.316-5.291,5.188-5.48a6.335,6.335,0,0,1,3.226.386,2.638,2.638,0,0,1,1.14,1.484v-8.717c0-.711-0.316-2.131-2.595-2.131-2.214,0-2.467,1.484-2.467,2.131v2.194l-4.429-.064a5.365,5.365,0,0,1,0-1.161c0-.259.511-5.357,6.834-5.357,6.647,0,6.833,3.485,7.149,5.357C366.754,608.012,366.754,616.333,366.754,622.6Zm-4.619,3.033V610.142s-0.063-1.807-2.593-1.807c-2.468,0-2.468,1.872-2.468,1.872v15.424s0.19,1.679,2.468,1.743C362.331,627.374,362.135,625.631,362.135,625.631Zm-4.871-23.75h0Zm21.131-2.13s0.19-3.485-2.53-3.485c-2.468,0-2.532,3.485-2.532,3.485v4.969l9.428,14.78,0.127,0.258V625.5c-0.189,1.613-.949,4.066-6.955,4.066-5.884,0-6.707-2.388-6.954-4.066v-6.131h4.428l0.064,5.356s-0.127,3.485,2.531,3.485c2.467,0,2.53-3.485,2.53-3.485v-5.033s-7.149-11.1-9.553-14.973v-5.744c0.252-1.614.949-4.067,6.954-4.067,5.884,0,6.77,2.388,6.955,4.067v7.032h-4.429Z" transform="translate(-253 -582)"/>
  <path id="Shape_1_copy_2" data-name="Shape 1 copy 2" class="cls-2" d="M317.091,622.6v6.712h-3.606v-1.743a3.712,3.712,0,0,1-1.076,1.743,13.286,13.286,0,0,1-2.468.258c-6.074,0-6.833-3.033-6.833-5.614V611.82s0.316-5.291,5.188-5.48a6.339,6.339,0,0,1,3.227.386,2.631,2.631,0,0,1,1.138,1.484v-8.717c0-.711-0.316-2.131-2.593-2.131-2.214,0-2.468,1.484-2.468,2.131v2.194l-4.429-.064a5.365,5.365,0,0,1,0-1.161c0-.259.507-5.357,6.833-5.357,6.648,0,6.833,3.485,7.149,5.357C317.091,608.012,317.091,616.333,317.091,622.6Zm-4.619,3.033V610.142s-0.063-1.807-2.593-1.807c-2.468,0-2.468,1.872-2.468,1.872v15.424s0.19,1.679,2.468,1.743C312.661,627.374,312.472,625.631,312.472,625.631Zm-4.872-23.75h0Z" transform="translate(-253 -582)"/>
</svg>
